<svg xmlns="http://www.w3.org/2000/svg" viewBox="0 0 32 32" width="32" height="32">
  <path fill="#1a73e8" d="M22.203 11.92c0.105 0.362 0.161 0.77 0.161 1.232 0 0.815 -0.179 1.602 -0.499 2.322 0.47 -0.335 0.891 -0.678 1.298 -0.993 1.442 -1.118 2.804 -1.507 3.857 -1.572 0.565 -0.035 1.491 -0.47 1.491 -0.989zm-0.206 1.232c0 -2.869 -2.625 -3.647 -4.959 -4.019 -2.352 -0.376 -5.073 -1.216 -5.073 -3.728 0 -1.232 0.77 -2.455 2.091 -2.455 1.945 0 2.285 1.475 2.293 1.686 0.008 0.211 -0.566 0.36 -0.64 0.778 -0.089 0.502 0.13 1.005 0.446 1.41 0.282 0.362 0.689 1.094 1.094 1.029 0.434 -0.069 0.591 -0.81 0.713 -1.297s0.332 -0.9 0.13 -1.353c-0.251 -0.562 -0.502 -0.284 -0.697 -0.689 -0.111 -0.232 -0.542 -2.585 -3.144 -2.585 -1.815 0 -3.468 1.499 -3.63 3.201 -0.232 2.436 0.729 3.355 2.755 4.311 3.156 1.49 6.434 1.426 6.434 3.517 0 2.042 -0.697 3.128 -1.896 3.922 -0.207 0.137 -0.601 0.317 -0.986 0.45v1.435q0.119 -0.017 0.24 -0.037c2.69 -0.454 4.829 -2.852 4.829 -5.575m-3.105 -1.232H3.488c0 0.519 0.926 0.954 1.491 0.989 1.053 0.065 2.415 0.454 3.857 1.572 1.473 1.142 3.132 2.646 6.604 2.792v4.416c0.202 0.037 0.426 0.057 0.673 0.057 0.103 0 0.263 -0.007 0.446 -0.026v-4.662c1.863 -0.408 2.882 -1.998 2.882 -4.102 0 -0.433 -0.178 -0.758 -0.549 -1.037m-3.451 13.143c0.313 0.191 0.698 0.275 1.118 0.331v-1.725c-0.374 0.025 -0.75 0.02 -1.118 -0.017zm3.703 1.395c-0.6 -0.454 -1.378 -0.559 -2.763 -0.729 -1.641 -0.202 -2.073 -1.234 -2.122 -2.322 -0.426 -0.141 -0.819 -0.338 -1.16 -0.594 -0.079 0.371 -0.114 0.756 -0.114 1.15 0 1.637 1.764 2.332 3.014 2.512 1.297 0.186 2.512 0.235 2.682 0.308 0.172 0.074 0.276 0.154 0.349 0.235 0.073 0.081 0.267 0.195 0.389 0.113 0.122 -0.081 0.024 -0.446 -0.276 -0.673m-4.424 -5.025c0.105 -0.108 0.225 -0.202 0.354 -0.284v-1.001c-0.312 0.176 -0.581 0.372 -0.813 0.59 0 0.269 0.161 0.514 0.459 0.696m3.565 -0.469c0 0.778 -1.021 1.151 -2.172 1.151s-2.22 -0.454 -2.22 -1.378c0 -1.14 0.469 -1.546 1.18 -1.729v-1.601c-1.561 0.121 -2.85 1.556 -2.85 2.779 0 0.891 0.158 2.289 2.626 2.998 2.593 0.746 5.575 -0.891 5.575 -2.528 0 -0.794 -0.407 -1.179 -0.94 -1.345 -0.443 -0.138 -0.968 -0.336 -2.558 0.123v1.01c0.251 -0.069 0.474 -0.112 0.694 -0.112 0.454 0 0.665 0.146 0.665 0.632m-8.476 9.108h12.382c0 -0.203 -0.656 -0.494 -1.224 -0.543s-1.329 -0.08 -1.499 -0.227c-0.235 -0.202 -0.61 -0.343 -1.102 -0.462 -0.502 -0.122 -1.807 -0.227 -1.807 -0.94v-0.99a14.08 14.08 0 0 1 -0.611 -0.073 5.952 5.952 0 0 1 -0.507 -0.096v1.159c0 0.713 -1.305 0.818 -1.807 0.94 -0.492 0.119 -0.867 0.259 -1.102 0.462 -0.17 0.147 -0.932 0.178 -1.499 0.227s-1.224 0.34 -1.224 0.543"/>
</svg>
