<svg xmlns="http://www.w3.org/2000/svg" viewBox="0 0 71 71" width="auto" height="71">
  <path fill="#1a73e8" d="M49.263 26.448c0.233 0.803 0.357 1.708 0.357 2.733 0 1.808 -0.397 3.554 -1.107 5.152 1.043 -0.743 1.977 -1.504 2.88 -2.203 3.199 -2.481 6.221 -3.344 8.558 -3.488 1.254 -0.078 3.308 -1.043 3.308 -2.194zm-0.457 2.733c0 -6.366 -5.824 -8.092 -11.003 -8.917 -5.218 -0.834 -11.256 -2.698 -11.256 -8.271 0 -2.733 1.708 -5.447 4.639 -5.447 4.315 0 5.07 3.273 5.088 3.741s-1.256 0.799 -1.42 1.726c-0.197 1.114 0.288 2.23 0.99 3.128 0.626 0.803 1.529 2.427 2.427 2.283 0.963 -0.153 1.311 -1.797 1.582 -2.878s0.737 -1.997 0.288 -3.002c-0.557 -1.247 -1.114 -0.63 -1.546 -1.529 -0.246 -0.515 -1.203 -5.735 -6.976 -5.735 -4.027 0 -7.695 3.326 -8.054 7.102 -0.515 5.405 1.617 7.444 6.113 9.565 7.002 3.306 14.275 3.164 14.275 7.803 0 4.531 -1.546 6.94 -4.207 8.702 -0.459 0.304 -1.333 0.703 -2.188 0.998v3.184q0.264 -0.038 0.532 -0.082c5.968 -1.007 10.714 -6.328 10.714 -12.37m-6.889 -2.733H7.739c0 1.152 2.055 2.117 3.308 2.194 2.336 0.144 5.358 1.007 8.558 3.488 3.268 2.534 6.949 5.871 14.653 6.195v9.798q0.672 0.124 1.493 0.126c0.229 0 0.584 -0.016 0.99 -0.058v-10.344c4.134 -0.905 6.394 -4.433 6.394 -9.101 0 -0.961 -0.395 -1.682 -1.218 -2.301m-7.657 29.161c0.694 0.424 1.549 0.61 2.481 0.734v-3.827c-0.83 0.055 -1.664 0.044 -2.481 -0.038zm8.216 3.095c-1.331 -1.007 -3.057 -1.24 -6.13 -1.617 -3.641 -0.448 -4.599 -2.738 -4.708 -5.152a8.875 8.875 0 0 1 -2.574 -1.318 12.203 12.203 0 0 0 -0.253 2.552c0 3.632 3.914 5.174 6.687 5.574 2.878 0.413 5.574 0.521 5.951 0.683a2.219 2.219 0 0 1 0.774 0.521c0.162 0.18 0.592 0.433 0.863 0.251 0.271 -0.18 0.053 -0.99 -0.612 -1.493m-9.816 -11.149q0.353 -0.359 0.785 -0.63v-2.221a9.319 9.319 0 0 0 -1.804 1.309c0 0.597 0.357 1.14 1.018 1.544m7.91 -1.041c0 1.726 -2.265 2.554 -4.819 2.554s-4.926 -1.007 -4.926 -3.057c0 -2.529 1.041 -3.43 2.618 -3.836v-3.552c-3.463 0.268 -6.323 3.452 -6.323 6.166 0 1.977 0.351 5.079 5.826 6.652 5.753 1.655 12.37 -1.977 12.37 -5.609 0 -1.762 -0.903 -2.616 -2.086 -2.984 -0.983 -0.306 -2.148 -0.746 -5.676 0.273v2.241c0.557 -0.153 1.052 -0.248 1.54 -0.248 1.007 0 1.475 0.324 1.475 1.402m-18.806 20.208H49.234c0 -0.45 -1.456 -1.096 -2.716 -1.205s-2.949 -0.177 -3.326 -0.504c-0.521 -0.448 -1.353 -0.761 -2.445 -1.025 -1.114 -0.271 -4.009 -0.504 -4.009 -2.086v-2.197a31.063 31.063 0 0 1 -1.356 -0.162 13.313 13.313 0 0 1 -1.125 -0.213v2.572c0 1.582 -2.895 1.815 -4.009 2.086 -1.092 0.264 -1.924 0.575 -2.445 1.025 -0.377 0.326 -2.068 0.395 -3.326 0.504s-2.716 0.754 -2.716 1.205"/>
</svg>